<svg width="443" height="395" viewBox="0 0 443 395" fill="none" xmlns="http://www.w3.org/2000/svg">
<path d="M18.2192 193.34C22.8759 197.997 22.8759 205.547 18.2192 210.204L-17.326 245.749C-21.9827 250.406 -21.9827 257.956 -17.326 262.613C-12.6694 267.27 -12.6694 274.819 -17.326 279.477L-24.7827 286.933C-29.4394 291.59 -29.4394 299.14 -24.7827 303.797C-20.126 308.454 -12.5761 308.454 -7.91891 303.797L111.944 183.933C116.601 179.277 116.601 171.727 111.944 167.069C107.288 162.413 107.288 154.863 111.944 150.206L119.401 142.749C124.058 138.092 124.058 130.542 119.401 125.885C114.744 121.228 114.744 113.678 119.401 109.022L154.946 73.4765C159.603 68.8198 159.603 61.2698 154.946 56.6132C150.29 51.9565 142.74 51.9565 138.083 56.6132L118.137 76.5597C113.48 81.2164 105.93 81.2164 101.273 76.5597C96.6166 71.903 89.0666 71.903 84.4094 76.5597L58.4026 102.566C53.746 107.223 46.196 107.223 41.5393 102.566C36.8826 97.9098 36.8826 90.3598 41.5393 85.7031L51.9474 75.2951C56.604 70.6384 56.604 63.0884 51.9474 58.4313C47.2907 53.7746 47.2907 46.2246 51.9474 41.5675L73.1585 20.3563C77.8152 15.6996 77.8152 8.14967 73.1585 3.49251C68.5018 -1.16417 60.9518 -1.16417 56.2946 3.49251L35.0835 24.7037C30.4268 29.3603 22.8769 29.3603 18.2197 24.7037C13.563 20.047 6.01306 20.047 1.3559 24.7037L-118.507 144.567C-123.164 149.224 -123.164 156.774 -118.507 161.431C-113.851 166.088 -106.301 166.088 -101.644 161.431L-80.4326 140.22C-75.7759 135.563 -68.2259 135.563 -63.5692 140.22C-58.9125 144.876 -58.9125 152.426 -63.5692 157.084L-84.7803 178.295C-89.437 182.951 -89.437 190.501 -84.7803 195.158C-80.1237 199.815 -80.1237 207.365 -84.7803 212.022L-95.1884 222.43C-99.8451 227.087 -99.8451 234.637 -95.1884 239.294C-90.5317 243.951 -82.9817 243.951 -78.3246 239.294L-52.3178 213.287C-47.6611 208.631 -40.1111 208.631 -35.454 213.287C-30.7973 217.944 -23.2473 217.944 -18.5902 213.287L1.35638 193.341C6.01259 188.683 13.5626 188.683 18.2192 193.34Z" fill="url(#paint0_linear_1_170)"/>
<path d="M104.628 487.825L95.94 496.514C91.1777 501.276 91.1777 508.998 95.94 513.76C100.702 518.522 108.424 518.522 113.186 513.76L146.478 480.468C151.24 475.706 158.961 475.706 163.724 480.468C168.486 485.231 168.486 492.952 163.724 497.714L130.432 531.006C125.67 535.768 125.67 543.49 130.432 548.252C135.194 553.014 142.916 553.014 147.678 548.252L166.192 529.738C170.954 524.976 178.675 524.976 183.438 529.738C188.2 534.5 188.2 542.222 183.438 546.984L150.379 580.043C145.616 584.805 145.616 592.527 150.379 597.289C155.141 602.051 162.862 602.051 167.625 597.289L303.33 461.584C308.092 456.821 308.092 449.1 303.33 444.338C298.568 439.575 298.568 431.854 303.33 427.092L336.389 394.033C341.151 389.27 341.151 381.549 336.389 376.787C331.626 372.024 323.905 372.024 319.143 376.787L300.629 395.3C295.867 400.062 288.146 400.062 283.383 395.3C278.621 390.538 278.621 382.816 283.383 378.054L316.675 344.762C321.437 340 321.437 332.279 316.675 327.516C311.913 322.754 304.191 322.754 299.429 327.516L266.137 360.808C261.375 365.57 253.654 365.57 248.891 360.808C244.129 356.046 244.129 348.324 248.891 343.562L257.579 334.874C262.342 330.111 262.342 322.39 257.579 317.628C252.817 312.865 245.096 312.865 240.333 317.628L104.628 453.334C99.8657 458.096 99.8657 465.818 104.628 470.58C109.39 475.342 109.39 483.063 104.628 487.825Z" fill="url(#paint1_linear_1_170)"/>
<path d="M111.175 455.412L123.62 442.967C128.382 438.205 136.104 438.205 140.866 442.967C145.628 447.729 153.35 447.729 158.112 442.967L293.921 307.158C298.626 302.453 298.626 294.824 293.921 290.119L293.714 289.912C289.009 285.207 281.38 285.207 276.675 289.912L264.127 302.46C259.364 307.223 251.643 307.223 246.881 302.46C242.118 297.698 242.118 289.977 246.881 285.214L250.487 281.608C255.192 276.903 255.192 269.274 250.487 264.569L250.28 264.362C245.575 259.657 245.575 252.028 250.28 247.323C254.985 242.618 254.985 234.989 250.28 230.284L250.074 230.077C245.368 225.372 237.739 225.372 233.034 230.077L219.426 243.685C214.721 248.391 207.092 248.391 202.386 243.685L202.18 243.479C197.474 238.774 189.846 238.774 185.14 243.479L49.3321 379.287C44.5698 384.05 44.5698 391.771 49.3321 396.533C54.0945 401.296 61.8158 401.296 66.5781 396.533L80.1865 382.925C84.8346 378.277 92.3712 378.277 97.0193 382.925L97.432 383.338C102.08 387.986 102.08 395.523 97.432 400.171C92.6696 404.933 92.6696 412.655 97.432 417.417C102.194 422.179 102.194 429.9 97.432 434.663L93.9295 438.165C89.1671 442.927 89.1671 450.649 93.9295 455.411C98.6918 460.174 106.413 460.174 111.175 455.412Z" fill="url(#paint2_linear_1_170)"/>
<path d="M-35.0812 348.82L-101.629 415.368C-106.392 420.131 -106.392 427.852 -101.629 432.614C-96.867 437.377 -89.1456 437.377 -84.3833 432.614L-57.8687 406.1C-53.1063 401.337 -45.385 401.337 -40.6227 406.1C-35.8603 410.862 -35.8603 418.583 -40.6227 423.346L-77.9171 460.64C-82.6794 465.403 -82.6794 473.124 -77.9171 477.886C-73.1547 482.649 -65.4334 482.649 -60.6711 477.886L-52.9507 470.166C-48.1884 465.403 -40.467 465.403 -35.7047 470.166C-30.9423 474.928 -23.221 474.928 -18.4587 470.166L-2.04703 453.755C2.71532 448.992 10.4366 448.992 15.199 453.755L15.6164 454.172C20.1484 458.704 20.1484 466.052 15.6164 470.583C10.854 475.346 10.854 483.067 15.6164 487.829C20.3787 492.592 28.1 492.592 32.8624 487.829L204.974 315.718C209.621 311.071 209.621 303.537 204.974 298.89L204.556 298.472C199.909 293.825 199.909 286.291 204.556 281.644C209.203 276.996 209.203 269.462 204.556 264.815L204.139 264.398C199.492 259.75 191.957 259.75 187.31 264.398L170.482 281.226C165.834 285.873 158.3 285.873 153.653 281.226L153.236 280.809C148.588 276.162 141.054 276.162 136.407 280.809L128.478 288.738C123.716 293.5 115.994 293.5 111.232 288.738C106.47 283.975 106.47 276.254 111.232 271.492L148.735 233.988C153.383 229.341 153.383 221.807 148.735 217.16L148.318 216.742C143.671 212.095 136.137 212.095 131.489 216.742L104.766 243.465C100.004 248.228 92.2827 248.228 87.5203 243.465C82.758 238.703 82.758 230.982 87.5203 226.219L154.277 159.463C158.924 154.816 158.924 147.281 154.277 142.634L153.859 142.217C149.212 137.57 141.678 137.57 137.031 142.217L-35.0803 314.328C-39.8426 319.09 -39.8426 326.812 -35.0803 331.574C-30.3189 336.337 -30.3189 344.058 -35.0812 348.82Z" fill="url(#paint3_linear_1_170)"/>
<path d="M160.029 217.256C166.764 217.256 172.224 211.797 172.224 205.062C172.224 198.327 166.764 192.867 160.029 192.867C153.294 192.867 147.834 198.327 147.834 205.062C147.834 211.797 153.294 217.256 160.029 217.256Z" fill="url(#paint4_linear_1_170)"/>
<path d="M112.713 70.7864C119.448 70.7864 124.908 65.3266 124.908 58.5916C124.908 51.8566 119.448 46.3969 112.713 46.3969C105.978 46.3969 100.518 51.8566 100.518 58.5916C100.518 65.3266 105.978 70.7864 112.713 70.7864Z" fill="url(#paint5_linear_1_170)"/>
<path d="M266.623 531.866L266.416 531.659C261.711 526.954 261.712 519.325 266.417 514.62L268.44 512.597C273.145 507.891 273.146 500.263 268.441 495.557L268.234 495.35C263.529 490.644 263.53 483.015 268.235 478.31L286.477 460.068C291.24 455.305 291.24 447.584 286.477 442.822C281.715 438.059 273.994 438.059 269.231 442.822L242.27 469.783C237.565 474.488 229.937 474.488 225.231 469.782L225.025 469.576C220.32 464.87 220.32 457.241 225.025 452.536L284.357 393.204C289.12 388.441 289.12 380.72 284.357 375.958C279.595 371.195 271.874 371.195 267.111 375.958L207.779 435.29C203.074 439.995 195.445 439.995 190.739 435.29L190.533 435.084C185.828 430.378 185.828 422.749 190.533 418.044L326.341 282.236C331.103 277.473 338.825 277.473 343.587 282.236C348.349 286.998 356.071 286.998 360.833 282.236L420.062 223.006C424.825 218.244 432.546 218.244 437.308 223.006C442.071 227.769 442.071 235.49 437.308 240.252L378.079 299.482C373.317 304.244 373.317 311.966 378.079 316.728C382.841 321.49 390.563 321.49 395.325 316.728L422.182 289.871C426.945 285.109 434.666 285.109 439.428 289.871C444.191 294.633 444.191 302.355 439.428 307.117L421.288 325.257C416.526 330.02 416.526 337.741 421.288 342.503C426.05 347.265 426.05 354.987 421.288 359.749L419.47 361.567C414.707 366.33 414.707 374.051 419.47 378.813C424.232 383.576 424.232 391.297 419.47 396.059L283.662 531.868C278.957 536.571 271.328 536.571 266.623 531.866Z" fill="url(#paint6_linear_1_170)"/>
<path d="M353.68 279.339C360.415 279.339 365.874 273.879 365.874 267.144C365.874 260.409 360.415 254.95 353.68 254.95C346.945 254.95 341.485 260.409 341.485 267.144C341.485 273.879 346.945 279.339 353.68 279.339Z" fill="url(#paint7_linear_1_170)"/>
<defs>
<linearGradient id="paint0_linear_1_170" x1="-90.3937" y1="153.645" x2="190.046" y2="153.645" gradientUnits="userSpaceOnUse">
<stop stop-color="#F1D8FC" stop-opacity="0.68"/>
<stop offset="1" stop-color="#5530C7" stop-opacity="0.64"/>
</linearGradient>
<linearGradient id="paint1_linear_1_170" x1="92.3683" y1="457.459" x2="339.96" y2="457.459" gradientUnits="userSpaceOnUse">
<stop stop-color="#442AFF"/>
<stop offset="0.9992" stop-color="#B690FC"/>
</linearGradient>
<linearGradient id="paint2_linear_1_170" x1="45.7607" y1="342.766" x2="297.449" y2="342.766" gradientUnits="userSpaceOnUse">
<stop stop-color="#F190FC" stop-opacity="0.59"/>
<stop offset="1" stop-color="#764BFA" stop-opacity="0.58"/>
</linearGradient>
<linearGradient id="paint3_linear_1_170" x1="-105.201" y1="315.066" x2="208.457" y2="315.066" gradientUnits="userSpaceOnUse">
<stop stop-color="#F190FC" stop-opacity="0.64"/>
<stop offset="1" stop-color="#4441FA" stop-opacity="0.66"/>
</linearGradient>
<linearGradient id="paint4_linear_1_170" x1="147.835" y1="205.062" x2="172.224" y2="205.062" gradientUnits="userSpaceOnUse">
<stop stop-color="#764BFA" stop-opacity="0.69"/>
<stop offset="1" stop-color="#F190FC" stop-opacity="0.6"/>
</linearGradient>
<linearGradient id="paint5_linear_1_170" x1="100.518" y1="58.5915" x2="124.908" y2="58.5915" gradientUnits="userSpaceOnUse">
<stop stop-color="#4B4BFA" stop-opacity="0.67"/>
<stop offset="1" stop-color="#F190FC" stop-opacity="0.75"/>
</linearGradient>
<linearGradient id="paint6_linear_1_170" x1="315.003" y1="219.434" x2="315.003" y2="535.395" gradientUnits="userSpaceOnUse">
<stop stop-color="#3A52C7" stop-opacity="0.62"/>
<stop offset="1" stop-color="#F190FC" stop-opacity="0.64"/>
</linearGradient>
<linearGradient id="paint7_linear_1_170" x1="341.485" y1="267.144" x2="365.874" y2="267.144" gradientUnits="userSpaceOnUse">
<stop stop-color="#764BFA" stop-opacity="0.71"/>
<stop offset="1" stop-color="#F190FC" stop-opacity="0.63"/>
</linearGradient>
</defs>
</svg>
