<svg width="100" height="60" viewBox="0 0 100 60" fill="none" xmlns="http://www.w3.org/2000/svg">
<path d="M70.3352 3C62.9356 3 56.2115 5.90877 51.2412 10.6284C50.9896 10.8671 50.7422 11.1099 50.5 11.3579C49.0959 12.7952 47.8588 14.3892 46.795 16.1014L46.7856 16.0983C46.7856 16.0983 44.989 18.813 44.1997 21.5039V21.5205C43.2153 24.3369 42.6703 27.3546 42.6703 30.5C42.6703 34.4673 43.5264 38.2384 45.0547 41.6494C46.4244 39.906 47.4705 37.9074 48.1344 35.7437C48.7556 34.2213 49.36 32.4592 49.8214 30.5C50.2996 28.4681 51.4406 24.8122 52.9554 21.9159C53.7144 20.3157 54.4117 19.4772 55.4431 18.289C55.6686 17.9953 55.9401 17.74 56.1927 17.4692C59.7223 13.6866 64.7469 11.3019 70.3352 11.3019C80.9846 11.3019 89.6484 19.9141 89.6484 30.5C89.6484 41.0859 80.9846 49.6981 70.3352 49.6981C64.7469 49.6981 59.7223 47.3134 56.1927 43.5308C54.8846 46.0525 53.2133 48.3553 51.2412 50.3726C56.2115 55.0912 62.9356 58 70.3352 58C85.5895 58 98 45.6634 98 30.5C98 15.3366 85.5895 3 70.3352 3Z" fill="url(#paint0_linear_1_251)"/>
<path d="M50.6315 49.4978C51.9793 48.0969 53.1756 46.5559 54.205 44.8996L54.2123 44.9027C54.2123 44.9027 56.01 42.187 56.7992 39.4972V39.4847C57.7837 36.6662 58.3296 33.6464 58.3296 30.5C58.3296 26.5608 57.484 22.8176 55.9766 19.4274L55.9734 19.3506C55.9734 19.3506 55.9609 19.3682 55.9546 19.3765C55.9515 19.3682 55.9484 19.3589 55.9442 19.3516C55.5966 19.8985 55.2625 20.4049 54.942 20.8843C54.2206 22.0715 53.611 23.3158 53.136 24.6171C52.4177 26.2785 51.7026 28.2637 51.1765 30.501C50.7161 32.4561 49.622 35.9076 48.2064 38.7448C47.3775 40.5391 46.5862 41.4689 45.5955 42.6633C45.3815 42.9217 45.0464 43.2766 44.8052 43.5319C41.2766 47.3134 36.2521 49.6981 30.6648 49.6981C20.0154 49.6981 11.3516 41.0859 11.3516 30.5C11.3516 19.9141 20.0154 11.3019 30.6648 11.3019C36.2521 11.3019 41.2777 13.6866 44.8073 17.4692C46.1154 14.9475 47.7878 12.6447 49.7588 10.6284C44.7895 5.90877 38.0644 3 30.6648 3C15.4105 3 3 15.3366 3 30.5C3 45.6634 15.4105 58 30.6648 58C38.0226 58 44.7123 55.1224 49.6732 50.4484L49.6742 50.4505C49.6888 50.437 49.7087 50.4173 49.7243 50.4027C49.7358 50.3913 49.7473 50.3809 49.7588 50.3716L49.7577 50.3706C49.9738 50.1641 50.2714 49.8693 50.4979 49.641L50.5 49.6421C50.5146 49.6265 50.5271 49.6109 50.5417 49.5954C50.5731 49.5643 50.6096 49.5279 50.6357 49.5009C50.6336 49.5009 50.6315 49.4978 50.6315 49.4978Z" fill="url(#paint1_linear_1_251)"/>
<defs>
<linearGradient id="paint0_linear_1_251" x1="95.6341" y1="4.73772" x2="54.4054" y2="88.5336" gradientUnits="userSpaceOnUse">
<stop stop-color="#B877FF" stop-opacity="0.86"/>
<stop offset="0.49" stop-color="#7800FF" stop-opacity="0.94074"/>
<stop offset="1" stop-color="#240050"/>
</linearGradient>
<linearGradient id="paint1_linear_1_251" x1="5.66801" y1="-13.6048" x2="49.7985" y2="64.0534" gradientUnits="userSpaceOnUse">
<stop offset="0.325" stop-color="#A34EFF" stop-opacity="0.86"/>
<stop offset="1" stop-color="#280355"/>
</linearGradient>
</defs>
</svg>
