<svg width="310" height="438" viewBox="0 0 310 438" fill="none" xmlns="http://www.w3.org/2000/svg">
<path d="M491.495 195.016L491.254 194.727C485.758 188.129 475.955 187.236 469.357 192.73L466.521 195.092C459.922 200.587 450.119 199.693 444.624 193.096L444.383 192.806C438.887 186.209 429.084 185.315 422.486 190.81L396.906 212.113C390.228 217.674 380.306 216.769 374.744 210.091C369.183 203.413 370.088 193.491 376.766 187.929L414.572 156.445C421.17 150.95 422.064 141.147 416.569 134.55L416.328 134.26C410.833 127.662 401.029 126.768 394.431 132.263L311.232 201.55C304.554 207.112 294.632 206.206 289.07 199.528C283.509 192.85 284.414 182.929 291.092 177.367L374.291 108.08C380.889 102.585 381.784 92.7818 376.289 86.1839L376.048 85.8942C370.552 79.2963 360.749 78.4025 354.151 83.8972L163.716 242.491C157.038 248.052 156.133 257.974 161.694 264.652C167.256 271.33 166.35 281.252 159.672 286.814L76.6177 355.98C69.9397 361.542 69.0345 371.464 74.5959 378.142C80.1572 384.82 90.0792 385.725 96.7572 380.163L179.812 310.996C186.49 305.435 196.412 306.34 201.973 313.018C207.535 319.696 206.629 329.618 199.951 335.179L162.291 366.543C155.613 372.104 154.708 382.026 160.269 388.704C165.831 395.382 175.752 396.287 182.43 390.726L207.868 369.542C214.546 363.98 224.468 364.886 230.029 371.564C235.59 378.242 245.512 379.147 252.19 373.585L254.74 371.462C261.418 365.901 271.34 366.806 276.901 373.484C282.462 380.162 292.384 381.067 299.062 375.506L489.499 216.912C496.095 211.417 496.99 201.614 491.495 195.016Z" fill="url(#paint0_linear_1_179)"/>
<path d="M197.159 224.884C202.597 231.413 201.712 241.115 195.182 246.554L145.339 288.062C138.809 293.5 137.924 303.202 143.362 309.732C148.8 316.262 147.915 325.964 141.385 331.402L130.928 340.11C124.398 345.548 123.513 355.25 128.951 361.78C134.389 368.31 144.091 369.195 150.621 363.757L318.7 223.783C325.23 218.345 326.115 208.643 320.677 202.113C315.239 195.583 316.124 185.881 322.654 180.443L333.11 171.736C339.64 166.298 340.525 156.596 335.087 150.065C329.649 143.536 330.534 133.834 337.064 128.396L386.907 86.8868C393.437 81.4488 394.322 71.747 388.884 65.2172C383.446 58.6874 373.744 57.8023 367.214 63.2402L339.244 86.5333C332.714 91.9713 323.012 91.0862 317.574 84.5563C312.136 78.0265 302.434 77.1414 295.903 82.5793L259.436 112.949C252.906 118.387 243.205 117.502 237.766 110.972C232.328 104.442 233.213 94.7403 239.743 89.3017L254.338 77.1474C260.867 71.7095 261.753 62.0077 256.315 55.4773C250.877 48.9474 251.762 39.2456 258.292 33.8071L288.035 9.03719C294.565 3.59922 295.45 -6.10258 290.012 -12.633C284.574 -19.1628 274.872 -20.0479 268.342 -14.61L238.599 10.1599C232.069 15.5979 222.367 14.7128 216.929 8.18292C211.491 1.65311 201.789 0.768006 195.259 6.20597L27.1808 146.181C20.651 151.619 19.7659 161.321 25.2038 167.85C30.6418 174.38 40.3436 175.265 46.8734 169.827L76.6166 145.058C83.1464 139.62 92.8482 140.505 98.2868 147.035C103.725 153.564 102.84 163.266 96.3098 168.705L66.5666 193.475C60.0368 198.913 59.1517 208.614 64.5896 215.145C70.0276 221.675 69.1425 231.376 62.6126 236.814L48.018 248.969C41.4882 254.407 40.6031 264.108 46.041 270.639C51.479 277.169 61.1808 278.054 67.7106 272.616L104.178 242.246C110.708 236.808 120.41 237.693 125.848 244.223C131.286 250.752 140.988 251.638 147.518 246.2L175.488 222.906C182.019 217.468 191.721 218.353 197.159 224.884Z" fill="url(#paint1_linear_1_179)"/>
<path d="M258.727 418.115C267.381 418.904 275.037 412.529 275.827 403.874C276.616 395.22 270.241 387.564 261.586 386.774C252.931 385.984 245.276 392.36 244.486 401.015C243.696 409.669 250.072 417.325 258.727 418.115Z" fill="url(#paint2_linear_1_179)"/>
<path d="M28.8314 304.352C37.4859 305.142 45.1419 298.766 45.9314 290.111C46.721 281.457 40.3452 273.801 31.6907 273.011C23.0361 272.222 15.3802 278.598 14.5906 287.252C13.8011 295.907 20.1769 303.563 28.8314 304.352Z" fill="url(#paint3_linear_1_179)"/>
<defs>
<linearGradient id="paint0_linear_1_179" x1="84.3448" y1="220.557" x2="490.358" y2="257.599" gradientUnits="userSpaceOnUse">
<stop stop-color="#3A0BC7" stop-opacity="0.61"/>
<stop offset="1" stop-color="#F190FC" stop-opacity="0.48"/>
</linearGradient>
<linearGradient id="paint1_linear_1_179" x1="21.6288" y1="157.436" x2="381.997" y2="190.313" gradientUnits="userSpaceOnUse">
<stop stop-color="#4B4BFA" stop-opacity="0.5"/>
<stop offset="1" stop-color="#F190FC" stop-opacity="0.66"/>
</linearGradient>
<linearGradient id="paint2_linear_1_179" x1="244.486" y1="401.015" x2="275.827" y2="403.874" gradientUnits="userSpaceOnUse">
<stop stop-color="#764BFA" stop-opacity="0.68"/>
<stop offset="1" stop-color="#F190FC" stop-opacity="0.65"/>
</linearGradient>
<linearGradient id="paint3_linear_1_179" x1="14.5907" y1="287.252" x2="45.9313" y2="290.111" gradientUnits="userSpaceOnUse">
<stop stop-color="#4B4BFA" stop-opacity="0.69"/>
<stop offset="1" stop-color="#F190FC" stop-opacity="0.7"/>
</linearGradient>
</defs>
</svg>
